<?xml version="1.0" standalone="no"?><!DOCTYPE svg PUBLIC "-//W3C//DTD SVG 1.1//EN" "http://www.w3.org/Graphics/SVG/1.1/DTD/svg11.dtd"><svg t="1697272064653" class="icon" viewBox="0 0 1024 1024" version="1.1" xmlns="http://www.w3.org/2000/svg" p-id="1604" id="mx_n_1697272064656" width="200" height="200" xmlns:xlink="http://www.w3.org/1999/xlink"><path d="M405.7 925.3c6.8-14.8 12.5-27.6 18.6-40.2 14-25.9 26.5-52.5 37.7-79.8 6.6-25.6 31.6-41.2 56.4-35.2 35.6 2.5 71.4 0.6 108.6 0.6V306.9c-25 0-49.7-0.9-74.2 0-17.1 0.9-23.1-4.7-22.6-23 1.2-43.9 0-88 0-133.9h347.4v106.5c0 50.1 0 50.1-48.6 50.1h-48.8v463.7h105.4c42.5 0 42.5 0 42.5 44.6v93.5c0 12.9-3.2 19.5-17.2 19.5-164.9-0.3-329.8-0.5-494.7-0.4-3.6-0.4-7.1-1.2-10.5-2.2" p-id="1605"></path><path d="M471.4 589.4c-21.7 44.8-40.8 84.8-60.8 124.1-3.6 4.6-8.9 7.2-14.6 7.3-48.3 0-96.9 1.9-145-1.7-48.2-3.6-67.5-34.6-48.3-81.9 21.9-54.6 48.2-107.4 72.6-160.9 1.5-3.4 2.7-6.8 5.6-14.3-19.5 0-36.6 0.5-53.7 0-13.9 0.2-27.8-1.1-41.4-3.8-26-3.1-44.7-27.4-41.7-54.4 0.6-5.7 2.2-11.2 4.7-16.4 29.3-70.3 62.1-139.2 93.7-208.4 10.3-22.7 21.1-45.1 32.7-67.2 3-5.7 9.9-13 15.2-13.2 45.2-1.1 90.5-0.6 139.8-0.6-4.3 11-6.7 18.5-10 25.5-27.7 57.9-55.4 115.7-83.3 173.4-5.6 11.7-12.4 23.9 8.6 32.8 5.6-30.1 28.2-24.6 48-24.6h114.2c-4.8 11.4-7.9 19.3-11.4 26.9-35.2 73.7-71.1 146.8-105.8 220.4-14.3 30-9.5 37.3 23.7 37.6 17.1-0.5 34.4-0.6 57.2-0.6M409.3 770.8c-26.8 53.7-50.7 102-75.2 150-2.9 4.1-7.5 6.7-12.4 7-65.7-0.8-131.5-2-197.4-3.7-9-1.4-17.8-3.7-26.4-7l36.8-74.4c12-24.6 23.7-49.1 36.6-72.5 3.5-5.7 9.3-9.5 15.8-10.4 60.3 3 120.6 7.2 181 10.9 12.1 0.6 23.6 0.1 41.2 0.1" p-id="1606"></path></svg>